<svg width="40" height="40" viewBox="0 0 40 40" fill="none" xmlns="http://www.w3.org/2000/svg">
<path d="M15.0007 20.0007L18.334 23.334L25.834 15.834M29.836 8.3315C30.1791 9.16154 30.8379 9.82131 31.6674 10.1658L34.576 11.3706C35.4061 11.7145 36.0656 12.374 36.4094 13.2041C36.7533 14.0342 36.7533 14.9669 36.4094 15.797L35.2055 18.7037C34.8615 19.5341 34.8611 20.4678 35.2066 21.2978L36.4084 24.2036C36.5789 24.6148 36.6667 25.0555 36.6667 25.5006C36.6668 25.9456 36.5792 26.3864 36.4089 26.7976C36.2385 27.2088 35.9889 27.5824 35.6741 27.897C35.3594 28.2117 34.9857 28.4613 34.5745 28.6314L31.6679 29.8354C30.8379 30.1786 30.1781 30.8374 29.8337 31.6669L28.6289 34.5757C28.2851 35.4058 27.6256 36.0653 26.7955 36.4092C25.9654 36.753 25.0328 36.753 24.2027 36.4092L21.2961 35.2052C20.466 34.8622 19.5337 34.8629 18.7041 35.2071L15.7955 36.4102C14.9659 36.7533 14.034 36.753 13.2046 36.4094C12.3752 36.0659 11.7161 35.4071 11.372 34.5779L10.1668 31.6683C9.82365 30.8383 9.16489 30.1785 8.3354 29.834L5.42676 28.6292C4.59704 28.2855 3.93774 27.6264 3.59379 26.7968C3.24983 25.9671 3.24936 25.0349 3.59249 24.2049L4.79642 21.2982C5.13941 20.4681 5.13871 19.5357 4.79448 18.7061L3.59227 15.7953C3.42182 15.3841 3.33406 14.9434 3.33398 14.4984C3.33391 14.0533 3.42154 13.6126 3.59186 13.2014C3.76217 12.7902 4.01184 12.4166 4.3266 12.1019C4.64135 11.7872 5.01502 11.5377 5.42626 11.3675L8.33281 10.1635C9.1621 9.8206 9.82146 9.16265 10.1662 8.33408L11.371 5.42533C11.7148 4.59523 12.3743 3.93571 13.2044 3.59187C14.0344 3.24802 14.9671 3.24802 15.7972 3.59187L18.7037 4.79584C19.5338 5.13884 20.4662 5.13814 21.2957 4.7939L24.2056 3.59373C25.0356 3.25008 25.968 3.25015 26.7979 3.59393C27.6279 3.9377 28.2873 4.59703 28.6312 5.42692L29.8363 8.33653L29.836 8.3315Z" stroke="#FDFFEA" stroke-width="2" stroke-linecap="round" stroke-linejoin="round"/>
</svg>
